# xmcd
#
# Track frame offsets:
# 150
# 12250
# 23212
# 35262
# 46087
# 59790
# 72720
# 83975
# 97072
# 110345
# 120175
# 133342
# 146562
# 160365
# 172350
# 186362
# 198432
# 207890
# 217497
# 226800
#
# Disc length: 3175 seconds
#
# Revision: 0
# Processed by: cddbd v1.4PL0 Copyright (c) Steve Scherf et al.
# Submitted via: MacMP3 Pro 5.0 (http://mp3.act2.co.jp/)
#
DISCID=350c6514
DTITLE=T-Bone Walker - I Get So Weary
DYEAR=1900
DGENRE=
TTITLE0=I Get So Weary
TTITLE1=You Just Wanted To Use Me
TTITLE2=Tell Me What's The Reason
TTITLE3=I'm About To Lose My Mind
TTITLE4=Here In The Dark
TTITLE5=Blue Mood
TTITLE6=Everytime
TTITLE7=I Miss You Baby
TTITLE8=Lollie Lou
TTITLE9=Party Girl
TTITLE10=Love Is Just A Gamble
TTITLE11=High Society
TTITLE12=Long Distance Blues
TTITLE13=Got No Use For You
TTITLE14=I'm Still In Love With You
TTITLE15=Railroad Station Blues
TTITLE16=I'll Understand
TTITLE17=Hard Way
TTITLE18=Teen Age Baby
TTITLE19=Strugglin' Blues
EXTD=
EXTT0=
EXTT1=
EXTT2=
EXTT3=
EXTT4=
EXTT5=
EXTT6=
EXTT7=
EXTT8=
EXTT9=
EXTT10=
EXTT11=
EXTT12=
EXTT13=
EXTT14=
EXTT15=
EXTT16=
EXTT17=
EXTT18=
EXTT19=
PLAYORDER=
